<svg width="24" height="24" viewBox="0 0 24 24" fill="none" xmlns="http://www.w3.org/2000/svg">
<path d="M16.7491 7.34543C16.7491 9.83743 14.6228 11.8576 11.9999 11.8576C9.377 11.8576 7.2507 9.83743 7.2507 7.34543C7.2507 4.85342 9.377 2.83325 11.9999 2.83325C14.6228 2.83325 16.7491 4.85342 16.7491 7.34543Z" fill="black"/>
<path d="M3.5869 17.2376C5.14604 16.0726 8.24895 14.1869 11.9999 14.1869C15.7509 14.1869 18.8538 16.0726 20.4129 17.2376C21.1089 17.7576 21.326 18.6367 21.0511 19.4363L20.6761 20.5275C20.3572 21.4554 19.4463 22.0833 18.4188 22.0833H5.58102C4.55355 22.0833 3.64263 21.4554 3.3237 20.5275L2.94869 19.4363C2.67387 18.6367 2.89096 17.7576 3.5869 17.2376Z" fill="black"/>
</svg>
