<svg width="29" height="29" viewBox="0 0 29 29" fill="none" xmlns="http://www.w3.org/2000/svg">
<path d="M29 26.2351C29 27.7623 27.7623 29 26.2351 29H2.76486C1.23772 29 0 27.7623 0 26.2351V2.76486C0 1.23772 1.23772 0 2.76486 0H26.2351C27.7623 0 29 1.23772 29 2.76486V26.2351Z" fill="#EAEAEA"/>
<path d="M21.4772 18.8396C21.8257 19.1882 21.8257 19.7537 21.4772 20.1023L20.102 21.4775C19.7534 21.826 19.1879 21.826 18.8393 21.4775L7.52352 10.1605C7.17494 9.81192 7.17494 9.24643 7.52352 8.89785L8.8987 7.52267C9.24728 7.17409 9.81278 7.17409 10.1614 7.52267L21.4772 18.8396Z" fill="#AAAAAA"/>
<path d="M18.8395 7.52364C19.1881 7.17506 19.7536 7.17506 20.1022 7.52364L21.4773 8.89882C21.8259 9.2474 21.8259 9.8129 21.4773 10.1615L10.1604 21.4773C9.8118 21.8259 9.2463 21.8259 8.89772 21.4773L7.52254 20.1021C7.17396 19.7535 7.17396 19.188 7.52254 18.8394L18.8395 7.52364Z" fill="#AAAAAA"/>
</svg>
