<svg width="20" height="15" viewBox="0 0 20 15" fill="none" xmlns="http://www.w3.org/2000/svg">
<path fill-rule="evenodd" clip-rule="evenodd" d="M19.1142 6.7536C19.0038 6.4788 16.3338 0 9.5994 0C2.865 0 0.195 6.4788 0.0846 6.7536C-0.0282 7.0404 -0.0282 7.3596 0.0846 7.6464C0.195 7.9212 2.865 14.4 9.5994 14.4C16.3338 14.4 19.0038 7.9212 19.1142 7.6464C19.227 7.3596 19.227 7.0404 19.1142 6.7536ZM9.5994 12C6.9486 12 4.7994 9.8508 4.7994 7.2C4.7994 4.5492 6.9486 2.4 9.5994 2.4C12.2514 2.4 14.3994 4.5492 14.3994 7.2C14.3994 9.8508 12.2514 12 9.5994 12ZM9.5994 4.8C8.2746 4.8 7.1994 5.8752 7.1994 7.2C7.1994 8.5248 8.2746 9.6 9.5994 9.6C10.9254 9.6 11.9994 8.5248 11.9994 7.2C11.9994 5.8752 10.9254 4.8 9.5994 4.8Z" fill="#A9A9A9"/>
</svg>
