<svg width="24" height="24" viewBox="0 0 24 24" fill="none" xmlns="http://www.w3.org/2000/svg">
<path d="M12 0C5.38 0 0 5.38 0 12C0 18.62 5.38 24 12 24C18.62 24 24 18.62 24 12C24 5.38 18.62 0 12 0ZM12 22C6.48 22 2 17.52 2 12C2 6.48 6.48 2 12 2C17.52 2 22 6.48 22 12C22 17.52 17.52 22 12 22Z" fill="#DD76A5"/>
<path d="M12 9.70001C11.44 9.70001 11 10.14 11 10.7V17.5C11 18.06 11.44 18.5 12 18.5C12.56 18.5 13 18.06 13 17.5V10.7C13 10.16 12.56 9.70001 12 9.70001Z" fill="#DD76A5"/>
<path d="M12.02 5.59999C11.5 5.55999 11.02 6.09999 11 6.63999C11 6.65999 11 6.77999 11 6.79999C11 7.33999 11.42 7.73999 11.98 7.75999H12C12.54 7.75999 12.98 7.27999 13 6.75999C13 6.73999 13 6.53999 13 6.53999C13 5.95999 12.58 5.59999 12.02 5.59999Z" fill="#DD76A5"/>
</svg>
