<svg width="84" height="76" viewBox="0 0 84 76" fill="none" xmlns="http://www.w3.org/2000/svg">
<path opacity="0.1" d="M61.0912 27.5681C74.2783 32.8987 71.6502 43.6251 67.2302 54.5595C62.8101 65.4939 47.9041 22.2375 61.0912 27.5681Z" fill="#F5CED3"/>
<path d="M74.7089 53.39C75.0693 53.3878 75.4242 53.3011 75.7449 53.1367C76.0657 52.9724 76.3433 52.735 76.5556 52.4437C77.184 51.6404 77.5869 50.4402 77.8197 48.9635C78.2857 46.0097 78.0357 41.9292 76.9188 37.8141C75.7926 33.6635 73.8817 32.1344 72.0874 31.8019C71.2838 31.6695 70.4612 31.7123 69.6756 31.9272C68.9999 32.0961 68.4399 32.3166 68.287 32.3467C68.0589 32.4104 67.846 32.5195 67.6611 32.6675C67.4762 32.8155 67.3231 32.9993 67.211 33.2079C66.8602 33.7834 66.6005 34.4096 66.4412 35.0645C66.0132 36.6412 65.7708 38.9158 65.9155 41.9416C66.0164 44.4046 66.8316 46.785 68.2618 48.7927C69.6921 50.8004 71.6755 52.3487 73.9704 53.2487L73.9791 53.252C74.213 53.339 74.4599 53.3861 74.7095 53.3911L74.7089 53.39ZM74.7475 52.5673C74.5851 52.5539 74.4254 52.5174 74.2733 52.4589C72.1313 51.6186 70.2802 50.1731 68.9456 48.2987C67.6111 46.4243 66.8509 44.2021 66.7577 41.903C66.7577 41.903 66.7577 41.9011 66.7577 41.9002C66.6169 38.9403 66.8599 36.7397 67.2549 35.2838C67.393 34.7151 67.616 34.1705 67.9165 33.6683C68.0317 33.4465 68.2203 33.2716 68.4501 33.1733C68.827 33.0987 69.2733 32.8966 69.8798 32.7445C70.548 32.56 71.248 32.521 71.9325 32.6302C73.3929 32.9008 75.0234 34.0579 76.1026 38.0334C77.1908 42.0433 77.4259 46.0432 76.9852 48.8309C76.7653 50.2245 76.3681 51.3107 75.8897 51.922C75.531 52.3803 75.1878 52.5949 74.7469 52.5665L74.7475 52.5673Z" fill="#EFA7CC"/>
<path d="M43.2671 75.9092C43.7553 75.8939 44.2234 75.7112 44.5929 75.3917L44.5994 75.3858C46.4492 73.7546 47.7844 71.6205 48.4421 69.2435C49.0999 66.8665 49.0517 64.3495 48.3034 61.9995C47.405 59.1074 46.3999 57.0524 45.4598 55.7173C45.086 55.1561 44.6277 54.6562 44.101 54.2352C43.9242 54.0775 43.7174 53.9572 43.493 53.8814C43.2685 53.8056 43.0311 53.776 42.7949 53.7943C42.6409 53.8182 42.0381 53.8028 41.3461 53.8745C40.5341 53.9413 39.7461 54.1825 39.0359 54.5818C37.4629 55.5078 36.1903 57.5989 36.551 61.8855C36.9086 66.1369 38.0688 70.058 39.5171 72.675C40.2413 73.9837 41.0299 74.9733 41.8954 75.5136C42.304 75.7775 42.7815 75.9146 43.2679 75.9078L43.2671 75.9092ZM43.2308 75.1037C42.9111 75.09 42.6024 74.9835 42.3422 74.7973C41.6836 74.3863 40.9386 73.5022 40.2553 72.2662C38.8887 69.7965 37.7405 65.9561 37.392 61.8148C37.0465 57.709 38.1837 56.0636 39.4639 55.311C40.07 54.9742 40.7413 54.7713 41.4325 54.7161C42.0547 54.6516 42.5435 54.6879 42.9233 54.6316C43.173 54.6456 43.4101 54.7457 43.5942 54.9149C44.0483 55.2839 44.4442 55.7194 44.7683 56.2066C45.6369 57.439 46.6189 59.4247 47.4993 62.2554V62.2582C48.198 64.451 48.2435 66.7998 47.6302 69.018C47.0168 71.2362 45.7712 73.2279 44.0453 74.7503C43.8245 74.9613 43.5361 75.0874 43.2313 75.1062L43.2308 75.1037Z" fill="#EFA7CC"/>
<path d="M17.0208 75.9782C18.0344 76.0855 19.2665 75.7913 20.6424 75.2062C23.3943 74.0358 26.7213 71.6609 29.6213 68.5321C32.5441 65.377 32.8284 62.9464 32.1592 61.2487C31.8455 60.497 31.3732 59.822 30.7745 59.2697C30.2734 58.7871 29.7891 58.4287 29.6824 58.3149C29.5077 58.1552 29.3024 58.0324 29.079 57.954C28.8557 57.8755 28.6187 57.8431 28.3825 57.8585C27.7084 57.866 27.0395 57.9777 26.3995 58.1896C24.8361 58.6624 22.7785 59.6624 20.2899 61.3889C18.2547 62.7798 16.6681 64.7328 15.7235 67.0099C14.779 69.2869 14.5174 71.7895 14.9706 74.2126L14.9723 74.2214C15.0737 74.6986 15.3294 75.1292 15.6999 75.4467C16.0704 75.7642 16.5351 75.951 17.0222 75.9782H17.0208ZM17.1098 75.1387C16.3392 75.0573 15.9501 74.7687 15.7983 74.0505C15.3759 71.789 15.6207 69.4534 16.5029 67.3287C17.3851 65.2039 18.8665 63.3818 20.7666 62.0846L20.7694 62.0829C23.2045 60.3936 25.1993 59.4341 26.6422 58.998C27.1976 58.8136 27.7777 58.714 28.3628 58.7026C28.6124 58.6825 28.8612 58.7498 29.0666 58.893C29.3296 59.1731 29.7376 59.444 30.1878 59.8784C30.6984 60.3474 31.1025 60.9205 31.3728 61.5589C31.9176 62.9408 31.8005 64.9375 29.001 67.9586C26.1774 71.0066 22.9089 73.3255 20.3121 74.4297C19.0136 74.9818 17.8824 75.2206 17.1106 75.1392L17.1098 75.1387Z" fill="#EFA7CC"/>
<path d="M56.3756 21.7239C58.0095 21.7139 59.5969 21.1794 60.904 20.199C62.5534 18.9996 63.6615 17.3753 63.8603 16.0174C63.9183 15.7219 63.8985 15.4165 63.8026 15.131C63.7068 14.8455 63.5384 14.5899 63.3138 14.3892C62.8197 14.0354 62.2593 13.7848 61.6662 13.6524C60.3539 13.2582 58.6255 12.8466 56.8117 11.5501C54.8899 10.1761 52.6479 9.06203 50.5081 8.72192C48.3683 8.38181 46.2756 8.86269 44.9233 10.6911C44.2053 11.6613 44.2028 12.8362 44.6533 13.9359C45.1038 15.0357 45.9766 16.1123 47.0591 17.1143C49.2245 19.1187 52.2357 20.821 54.6046 21.4733C55.1816 21.6334 55.7769 21.7177 56.3756 21.7239ZM56.3905 20.8815C55.8627 20.8756 55.3379 20.8011 54.8293 20.6599C52.6527 20.0602 49.6851 18.3929 47.6338 16.4944C46.6081 15.545 45.8127 14.5365 45.4357 13.6161C45.0587 12.6957 45.0697 11.9155 45.6046 11.1934C46.7573 9.63582 48.4334 9.24729 50.3777 9.55643C52.3221 9.86557 54.4794 10.9194 56.3227 12.2371C58.2744 13.6324 60.1554 14.0815 61.4258 14.4613C61.9051 14.5732 62.3612 14.7678 62.7735 15.0365C63.0128 15.237 63.0982 15.4062 63.0269 15.8944C62.8828 16.8736 61.9007 18.4309 60.4085 19.5154C59.2513 20.3917 57.842 20.8708 56.3905 20.8815Z" fill="#EFA7CC"/>
<path d="M7.24151 57.7302C7.26546 57.7304 7.28939 57.7285 7.31303 57.7246C7.31303 57.7246 33.1368 53.7578 54.8949 38.3624C65.819 30.6316 69.3525 21.1704 70.1177 13.6705C70.883 6.1706 68.8975 0.587749 68.8975 0.587749C68.8806 0.533455 68.853 0.483135 68.8162 0.439781C68.7794 0.396431 68.7343 0.360947 68.6835 0.335464C68.6327 0.309982 68.5772 0.295013 68.5205 0.291473C68.4637 0.28793 68.4069 0.295879 68.3533 0.314842C68.2997 0.333809 68.2505 0.3634 68.2086 0.40184C68.1667 0.440281 68.133 0.486774 68.1095 0.538551C68.0861 0.590324 68.0733 0.646309 68.072 0.703144C68.0706 0.759975 68.0808 0.816486 68.1018 0.869297C68.1018 0.869297 70.0214 6.27027 69.2753 13.583C68.5292 20.8956 65.1366 30.0792 54.405 37.6726C32.8496 52.9253 7.18323 56.8889 7.18323 56.8889C7.0781 56.9044 6.98265 56.9589 6.91592 57.0415C6.84918 57.1242 6.81607 57.229 6.82317 57.335C6.83028 57.4411 6.87708 57.5405 6.95426 57.6135C7.03143 57.6866 7.1333 57.7278 7.23954 57.7291L7.24151 57.7302Z" fill="#EFA7CC"/>
<path d="M70.0306 25C70.7797 25.087 71.5386 24.9794 72.234 24.6878C73.7941 24.0639 74.6863 23.351 75.1903 22.7696C75.3881 22.5463 75.5551 22.2975 75.6869 22.03C75.7409 21.9181 75.7836 21.8011 75.8145 21.6808C75.8256 21.6265 75.8258 21.5705 75.8153 21.516C75.8047 21.4616 75.7836 21.4097 75.753 21.3634C75.7224 21.3172 75.683 21.2774 75.637 21.2463C75.591 21.2153 75.5394 21.1936 75.4851 21.1825C75.4307 21.1714 75.3747 21.1711 75.3202 21.1817C75.2658 21.1922 75.2139 21.2134 75.1677 21.244C75.1214 21.2746 75.0816 21.314 75.0505 21.3599C75.0195 21.4059 74.9978 21.4576 74.9867 21.5119C74.9727 21.5659 74.9518 21.6179 74.9245 21.6665C74.8251 21.8657 74.6995 22.0508 74.5512 22.2169C74.1474 22.6837 73.3785 23.3206 71.9209 23.9034C70.5332 24.4583 69.5528 24.1416 68.8557 23.6973C68.4395 23.4333 68.0807 23.0881 67.801 22.6823C67.7417 22.5872 67.6471 22.5196 67.5379 22.4942C67.4287 22.4689 67.314 22.488 67.2189 22.5473C67.1238 22.6066 67.0562 22.7012 67.0308 22.8104C67.0055 22.9196 67.0246 23.0343 67.0839 23.1294C67.4317 23.6411 67.88 24.0767 68.4015 24.4096C68.8945 24.7246 69.4512 24.9265 70.0314 25.0009L70.0306 25Z" fill="#EFA7CC"/>
<path d="M30.6787 45.5702C31.5447 45.6321 32.4129 45.485 33.2101 45.1412C34.0073 44.7974 34.7102 44.2671 35.2595 43.5948C36.5386 42.124 36.573 40.1723 36.013 38.1485C35.453 36.1248 34.3102 33.9616 33.126 31.8604C31.8717 29.6362 29.4917 28.151 27.2013 27.6273C26.1354 27.3544 25.018 27.3531 23.9514 27.6234C23.4667 27.7464 23.0153 27.9751 22.6294 28.2931C22.2435 28.6111 21.9327 29.0105 21.7193 29.4627C20.9028 31.2717 21.0278 33.7454 21.7378 36.2008C22.4479 38.6562 23.7591 41.0978 25.465 42.8085C27.156 44.5042 28.9562 45.4353 30.6787 45.5702ZM30.7446 44.7278C29.2806 44.6132 27.6515 43.8049 26.0633 42.2119C24.49 40.6352 23.223 38.2966 22.549 35.966C21.875 33.6353 21.8091 31.3165 22.489 29.8104C22.6488 29.4675 22.8845 29.1655 23.1783 28.9272C23.4721 28.6889 23.8163 28.5206 24.1848 28.4351C25.1144 28.2072 26.0859 28.2125 27.013 28.4506C29.0852 28.9244 31.2838 30.3133 32.3906 32.2757C33.5666 34.3623 34.6767 36.4877 35.199 38.3741C35.7213 40.2604 35.667 41.8399 34.6227 43.0405C33.5356 44.2914 32.2106 44.8424 30.7455 44.7275L30.7446 44.7278Z" fill="#EFA7CC"/>
<path d="M5.61977 59.1389C4.89929 59.9391 3.10919 59.9965 2.30875 59.276C1.5083 58.5555 2.00102 57.3299 2.72178 56.5298C2.89312 56.3395 3.10026 56.1848 3.33137 56.0746C3.56248 55.9643 3.81304 55.9007 4.06874 55.8873C4.32445 55.8739 4.58029 55.911 4.82165 55.9965C5.06302 56.082 5.28519 56.2141 5.47548 56.3855C5.66576 56.5568 5.82043 56.764 5.93067 56.9951C6.0409 57.2262 6.10454 57.4767 6.11793 57.7324C6.13133 57.9881 6.09424 58.244 6.00876 58.4854C5.92329 58.7267 5.79111 58.9489 5.61977 59.1392V59.1389Z" fill="#FBA6CD"/>
<path d="M11.0803 43.5373C10.3599 44.3375 8.56976 44.3949 7.76932 43.6744C6.96887 42.954 7.46159 41.7284 8.18235 40.9282C8.52838 40.5439 9.0129 40.3128 9.52932 40.2858C10.0457 40.2587 10.5517 40.4379 10.936 40.7839C11.3203 41.1299 11.5514 41.6145 11.5785 42.1309C11.6056 42.6473 11.4264 43.1533 11.0803 43.5376V43.5373Z" fill="#FBA6CD"/>
<path d="M46.7227 27.1657C45.7553 28.2401 43.352 28.3169 42.2771 27.3493C41.2021 26.3816 41.8643 24.7368 42.8317 23.661C43.3004 23.1609 43.9465 22.8646 44.6312 22.8356C45.3159 22.8066 45.9847 23.0472 46.4941 23.5058C47.0034 23.9643 47.3126 24.6043 47.3554 25.2883C47.3981 25.9724 47.171 26.6459 46.7227 27.1643V27.1657Z" fill="#FBA6CD"/>
<path d="M58.8137 58.7592C57.8463 59.8336 55.4429 59.9105 54.368 58.9428C53.293 57.9751 53.9552 56.3303 54.9226 55.2545C55.1504 54.991 55.4285 54.7757 55.7406 54.621C56.0526 54.4663 56.3924 54.3755 56.74 54.3538C57.0876 54.332 57.436 54.3799 57.7649 54.4945C58.0938 54.6091 58.3965 54.7881 58.6553 55.0212C58.9142 55.2542 59.1239 55.5365 59.2723 55.8516C59.4206 56.1667 59.5046 56.5083 59.5194 56.8562C59.5341 57.2042 59.4793 57.5516 59.3581 57.8781C59.2369 58.2046 59.0518 58.5037 58.8137 58.7578V58.7592Z" fill="#FBA6CD"/>
<path d="M81.6773 21.3049C80.9568 22.1051 79.1667 22.1625 78.3662 21.442C77.5658 20.7215 78.0585 19.496 78.7793 18.6958C78.9506 18.5055 79.1578 18.3508 79.3889 18.2406C79.62 18.1304 79.8705 18.0667 80.1262 18.0533C80.3819 18.0399 80.6378 18.077 80.8792 18.1625C81.1205 18.248 81.3427 18.3802 81.533 18.5515C81.7233 18.7228 81.8779 18.93 81.9882 19.1611C82.0984 19.3922 82.162 19.6428 82.1754 19.8985C82.1888 20.1542 82.1517 20.41 82.0663 20.6514C81.9808 20.8927 81.8486 21.1149 81.6773 21.3052V21.3049Z" fill="#FBA6CD"/>
<path d="M71.8047 41.6441C71.8672 41.646 71.9293 41.634 71.9866 41.609C72.0439 41.584 72.095 41.5466 72.1361 41.4994C72.1771 41.4523 72.2072 41.3966 72.2242 41.3364C72.2411 41.2762 72.2445 41.213 72.234 41.1514C72.234 41.1514 71.4713 36.1274 69.1809 32.1638C68.0291 30.1701 66.8199 29.2534 65.8677 28.8578C65.4935 28.6973 65.0946 28.602 64.6882 28.5762C64.5188 28.5665 64.3488 28.5759 64.1814 28.6044C64.1272 28.6163 64.0759 28.6387 64.0304 28.6705C63.9849 28.7022 63.946 28.7426 63.9161 28.7893C63.8862 28.836 63.8658 28.8882 63.856 28.9428C63.8462 28.9975 63.8473 29.0535 63.8592 29.1077C63.8711 29.1619 63.8935 29.2132 63.9253 29.2587C63.957 29.3043 63.9974 29.3431 64.0441 29.373C64.0908 29.4029 64.143 29.4234 64.1976 29.4331C64.2523 29.4429 64.3083 29.4418 64.3625 29.4299C64.4564 29.4139 64.552 29.4106 64.6469 29.42C64.9565 29.4403 65.2604 29.5136 65.5453 29.6368C66.3074 29.9536 67.3708 30.7155 68.4514 32.5861C70.6264 36.3504 71.4007 41.28 71.4007 41.28C71.4145 41.3787 71.4627 41.4693 71.5369 41.5358C71.611 41.6023 71.7063 41.6404 71.8058 41.6435L71.8047 41.6441Z" fill="#EFA7CC"/>
<path d="M42.4971 63.771C42.5668 63.7731 42.6359 63.758 42.6983 63.7269C42.7608 63.6958 42.8145 63.6498 42.8548 63.5929C42.8951 63.536 42.9207 63.47 42.9292 63.4008C42.9378 63.3316 42.9291 63.2613 42.9039 63.1963C42.9039 63.1963 40.9545 57.8601 41.5643 53.2041C42.1742 48.5481 45.3652 44.3601 45.3652 44.3601C45.4335 44.2712 45.4636 44.1588 45.449 44.0477C45.4344 43.9366 45.3763 43.8358 45.2874 43.7676C45.1985 43.6993 45.0861 43.6692 44.975 43.6838C44.8639 43.6984 44.7631 43.7565 44.6949 43.8454C44.6949 43.8454 41.3782 48.1306 40.7278 53.0949C40.0775 58.0592 42.1125 63.4897 42.1125 63.4897C42.1409 63.57 42.1928 63.6399 42.2616 63.6901C42.3304 63.7404 42.4128 63.7687 42.4979 63.7712L42.4971 63.771Z" fill="#EFA7CC"/>
<path d="M24.0249 66.4358C24.1056 66.4359 24.1847 66.4128 24.2527 66.3693C24.2527 66.3693 29.1992 63.3438 31.7419 59.033C34.2846 54.7222 34.3091 49.3046 34.3091 49.3046C34.3095 49.2492 34.2991 49.1942 34.2783 49.1427C34.2575 49.0913 34.2268 49.0445 34.1879 49.005C34.149 48.9654 34.1027 48.9339 34.0516 48.9123C34.0005 48.8906 33.9457 48.8792 33.8903 48.8788C33.8348 48.8783 33.7798 48.8888 33.7284 48.9096C33.677 48.9304 33.6301 48.9611 33.5906 49C33.5511 49.0389 33.5196 49.0852 33.4979 49.1362C33.4763 49.1873 33.4649 49.2421 33.4644 49.2976C33.4644 49.2976 33.3999 54.5603 31.0149 58.6036C28.6299 62.647 23.809 65.6505 23.809 65.6505C23.7295 65.6979 23.6677 65.77 23.6332 65.8558C23.5986 65.9416 23.5932 66.0364 23.6178 66.1256C23.6423 66.2148 23.6955 66.2934 23.7691 66.3495C23.8427 66.4055 23.9327 66.4358 24.0252 66.4358H24.0249Z" fill="#EFA7CC"/>
<path d="M61.2317 17.291C66.2346 17.4949 70.1979 12.5202 70.1979 12.5202C70.2329 12.4771 70.2591 12.4276 70.275 12.3745C70.2908 12.3213 70.2961 12.2656 70.2904 12.2104C70.2847 12.1552 70.2682 12.1017 70.2418 12.0529C70.2155 12.0041 70.1797 11.961 70.1367 11.926C70.0937 11.891 70.0441 11.8648 69.991 11.8489C69.9378 11.8331 69.8821 11.8278 69.8269 11.8335C69.7717 11.8392 69.7182 11.8557 69.6694 11.8821C69.6206 11.9084 69.5775 11.9442 69.5425 11.9872C69.5425 11.9872 65.188 17.2299 60.3702 16.3473C57.8455 15.8847 56.2528 15.1476 55.2978 14.5397C54.8214 14.2719 54.3991 13.9176 54.0527 13.4949C54.0216 13.4482 53.9815 13.4081 53.9348 13.3771C53.888 13.3461 53.8355 13.3247 53.7804 13.3142C53.7253 13.3037 53.6686 13.3043 53.6137 13.3159C53.5588 13.3275 53.5068 13.35 53.4607 13.382C53.4145 13.4139 53.3753 13.4548 53.3451 13.5021C53.3149 13.5495 53.2945 13.6023 53.285 13.6576C53.2755 13.7129 53.2772 13.7696 53.2898 13.8243C53.3025 13.8789 53.3259 13.9305 53.3587 13.9761C53.7755 14.4848 54.2782 14.9165 54.8439 15.2518C55.8969 15.9221 57.598 16.6981 60.2176 17.1781C60.5525 17.2395 60.8914 17.2772 61.2317 17.291Z" fill="#EFA7CC"/>
<path d="M50.086 31.1589C51.739 31.1589 52.9989 30.5035 54.2107 29.8396C55.4225 29.1757 56.598 28.5014 58.1806 28.2981C61.3761 27.8876 63.2076 29.35 63.2076 29.35C63.2957 29.4192 63.4077 29.4506 63.5189 29.4373C63.6301 29.4239 63.7315 29.367 63.8007 29.2789C63.8699 29.1908 63.9013 29.0789 63.888 28.9676C63.8747 28.8564 63.8177 28.755 63.7296 28.6858C63.7296 28.6858 61.5679 27.0111 58.0727 27.4599C56.3088 27.6852 55.0066 28.4406 53.8061 29.098C52.6056 29.7554 51.5185 30.3137 50.0871 30.3137C47.2635 30.3137 46.1784 27.7139 46.1784 27.7139C46.1567 27.6628 46.1252 27.6165 46.0856 27.5777C46.0461 27.5388 45.9993 27.5081 45.9478 27.4873C45.8964 27.4665 45.8414 27.456 45.7859 27.4565C45.7304 27.457 45.6756 27.4684 45.6246 27.4901C45.5735 27.5117 45.5272 27.5432 45.4883 27.5828C45.4494 27.6224 45.4187 27.6692 45.3979 27.7206C45.3772 27.772 45.3667 27.8271 45.3672 27.8825C45.3677 27.938 45.3791 27.9928 45.4007 28.0439C45.4007 28.0439 46.7395 31.1589 50.086 31.1589Z" fill="#EFA7CC"/>
<path d="M41.6434 45.4373C42.1699 45.4193 42.4863 45.3762 42.4863 45.3762C42.5975 45.3621 42.6985 45.3044 42.7671 45.2158C42.8357 45.1272 42.8662 45.0149 42.8521 44.9038C42.8379 44.7926 42.7802 44.6917 42.6916 44.6231C42.603 44.5545 42.4908 44.5239 42.3796 44.538C42.3796 44.538 37.6119 45.0989 34.6503 42.476C33.5296 41.5289 32.5595 40.4169 31.7731 39.1782C31.5317 38.8163 31.3472 38.4196 31.2261 38.0019C31.215 37.9471 31.1932 37.8951 31.1619 37.8489C31.1306 37.8026 31.0905 37.763 31.0438 37.7324C30.9971 37.7018 30.9448 37.6807 30.89 37.6704C30.8351 37.6601 30.7787 37.6608 30.7241 37.6724C30.6695 37.684 30.6177 37.7064 30.5718 37.7382C30.5259 37.7699 30.4867 37.8105 30.4566 37.8575C30.4264 37.9045 30.4059 37.957 30.3962 38.012C30.3865 38.067 30.3878 38.1234 30.4 38.1778C30.5461 38.685 30.7642 39.1685 31.0476 39.6137C31.878 40.9263 32.9033 42.1048 34.0883 43.1089C36.5899 45.3233 40.0622 45.4919 41.6434 45.4373Z" fill="#EFA7CC"/>
<path d="M3.82166 58.5734C3.92153 58.4659 3.99904 58.3397 4.04965 58.202C4.10026 58.0644 4.12298 57.918 4.11647 57.7715C4.10996 57.6249 4.07436 57.4812 4.01175 57.3485C3.94913 57.2159 3.86074 57.097 3.75174 56.9989C3.64273 56.9007 3.51529 56.8252 3.37683 56.7768C3.23837 56.7284 3.09166 56.708 2.94524 56.7169C2.79883 56.7257 2.65564 56.7636 2.52401 56.8284C2.39239 56.8931 2.27496 56.9834 2.17856 57.0939C1.90525 57.3841 1.70564 57.7356 1.59653 58.119C1.51468 58.4784 1.64127 58.5923 1.70216 58.6472C2.02002 58.8674 2.4054 58.9685 2.79046 58.9326C3.16645 58.9423 3.53307 58.8146 3.82166 58.5734ZM4.44936 59.1385C3.72875 59.9389 1.93833 59.9964 1.13781 59.2756C0.33729 58.5548 0.83007 57.3293 1.55086 56.5287C1.72124 56.3349 1.9284 56.1768 2.16034 56.0636C2.39227 55.9504 2.64437 55.8843 2.90202 55.8693C3.15967 55.8542 3.41774 55.8904 3.66129 55.9758C3.90483 56.0613 4.12899 56.1942 4.32079 56.3669C4.51259 56.5396 4.6682 56.7486 4.77861 56.9819C4.88902 57.2152 4.95203 57.468 4.96399 57.7259C4.97595 57.9837 4.93662 58.2413 4.84828 58.4838C4.75994 58.7263 4.62434 58.9488 4.44936 59.1385Z" fill="#EFA7CC"/>
<path d="M9.28223 42.972C9.38211 42.8646 9.45961 42.7384 9.51022 42.6007C9.56084 42.4631 9.58355 42.3167 9.57704 42.1702C9.57054 42.0236 9.53494 41.8798 9.47232 41.7472C9.4097 41.6146 9.32131 41.4957 9.21231 41.3976C9.1033 41.2994 8.97586 41.2239 8.8374 41.1755C8.69894 41.1271 8.55223 41.1067 8.40581 41.1156C8.2594 41.1244 8.11621 41.1623 7.98458 41.227C7.85296 41.2918 7.73553 41.382 7.63913 41.4926C7.36582 41.7828 7.16621 42.1343 7.0571 42.5177C6.97526 42.877 7.10184 42.991 7.16273 43.0458C7.48059 43.2661 7.86597 43.3672 8.25104 43.3313C8.62702 43.341 8.99364 43.2132 9.28223 42.972ZM9.90993 43.5372C9.18932 44.3375 7.39891 44.3951 6.59838 43.6743C5.79786 42.9535 6.29064 41.7279 7.01143 40.9274C7.18181 40.7336 7.38897 40.5754 7.62091 40.4622C7.85284 40.349 8.10494 40.283 8.36259 40.2679C8.62024 40.2529 8.87831 40.2891 9.12186 40.3745C9.3654 40.46 9.58956 40.5929 9.78136 40.7656C9.97316 40.9382 10.1288 41.1473 10.2392 41.3806C10.3496 41.6139 10.4126 41.8667 10.4246 42.1245C10.4365 42.3823 10.3972 42.64 10.3088 42.8825C10.2205 43.125 10.0849 43.3475 9.90993 43.5372Z" fill="#EFA7CC"/>
<path d="M18.429 54.4898C18.5383 54.4927 18.6444 54.4531 18.7251 54.3793C18.8058 54.3056 18.8547 54.2034 18.8616 54.0943C18.8685 53.9852 18.8328 53.8777 18.7621 53.7943C18.6913 53.711 18.591 53.6584 18.4822 53.6475C17.3573 53.5189 16.2707 53.1605 15.29 52.5946C14.3092 52.0287 13.4552 51.2674 12.7809 50.3578C11.5984 48.7637 11.1059 47.5882 10.9035 46.832C10.8273 46.5636 10.7819 46.2874 10.7683 46.0087C10.7621 45.9391 10.7642 45.869 10.7745 45.7998C10.7856 45.7455 10.7859 45.6895 10.7754 45.635C10.7648 45.5805 10.7436 45.5287 10.713 45.4824C10.6825 45.4361 10.643 45.3964 10.5971 45.3653C10.5511 45.3343 10.4995 45.3126 10.4451 45.3015C10.3908 45.2904 10.3348 45.2901 10.2803 45.3007C10.2259 45.3112 10.174 45.3324 10.1277 45.363C10.0814 45.3936 10.0417 45.433 10.0106 45.4789C9.97956 45.5249 9.95787 45.5765 9.94678 45.6309C9.92615 45.7648 9.91842 45.9004 9.92369 46.0358C9.93956 46.3788 9.99454 46.7188 10.0876 47.0493C10.3221 47.9255 10.8694 49.1967 12.1023 50.8601C12.8457 51.8625 13.7871 52.7016 14.8681 53.3252C15.949 53.9489 17.1466 54.3438 18.3865 54.4856C18.4005 54.4875 18.4146 54.4886 18.4287 54.489L18.429 54.4898Z" fill="#EFA7CC"/>
<path d="M44.9246 26.6011C45.0804 26.428 45.2007 26.2259 45.2784 26.0064C45.3562 25.7868 45.3899 25.554 45.3777 25.3214C45.3655 25.0888 45.3077 24.8609 45.2074 24.6506C45.1071 24.4404 44.9664 24.252 44.7933 24.0961C44.6202 23.9402 44.4181 23.82 44.1985 23.7422C43.9789 23.6645 43.7462 23.6307 43.5136 23.6429C43.281 23.6551 43.053 23.713 42.8428 23.8133C42.6325 23.9136 42.4441 24.0543 42.2882 24.2274C41.8873 24.6531 41.5965 25.1703 41.4412 25.7341C41.3911 25.9252 41.3855 26.1254 41.4248 26.319C41.4624 26.4763 41.5489 26.6175 41.6718 26.7226C42.1534 27.0713 42.7451 27.2338 43.3373 27.1799C44.0182 27.1542 44.6263 26.9324 44.9246 26.6011ZM45.5523 27.1663C44.5847 28.2409 42.1808 28.3179 41.1058 27.3499C40.0308 26.3819 40.693 24.7368 41.6605 23.6622C42.1252 23.1461 42.7759 22.8358 43.4694 22.7994C44.1629 22.7631 44.8424 23.0037 45.3585 23.4684C45.8745 23.9331 46.1849 24.5837 46.2212 25.2772C46.2576 25.9707 46.0169 26.6502 45.5523 27.1663V27.1663Z" fill="#EFA7CC"/>
<path d="M57.0156 58.1942C57.1715 58.0211 57.2917 57.8189 57.3695 57.5994C57.4472 57.3798 57.481 57.1471 57.4688 56.9144C57.4566 56.6818 57.3987 56.4539 57.2984 56.2437C57.1982 56.0334 57.0575 55.845 56.8843 55.6891C56.7112 55.5333 56.5091 55.413 56.2896 55.3353C56.07 55.2575 55.8373 55.2238 55.6046 55.2359C55.372 55.2481 55.1441 55.306 54.9338 55.4063C54.7236 55.5066 54.5352 55.6473 54.3793 55.8204C53.9784 56.2461 53.6876 56.7633 53.5322 57.3271C53.4821 57.5183 53.4765 57.7184 53.5159 57.9121C53.5535 58.0693 53.64 58.2106 53.7629 58.3156C54.2445 58.6643 54.8362 58.8268 55.4284 58.7729C56.1092 58.7472 56.7174 58.5254 57.0156 58.1942ZM57.6433 58.7593C56.6757 59.834 54.2719 59.9109 53.1969 58.9429C52.1218 57.975 52.784 56.3298 53.7516 55.2552C54.2163 54.7391 54.8669 54.4288 55.5604 54.3925C56.2539 54.3561 56.9335 54.5967 57.4495 55.0614C57.9656 55.5261 58.2759 56.1767 58.3123 56.8702C58.3486 57.5637 58.108 58.2433 57.6433 58.7593V58.7593Z" fill="#EFA7CC"/>
<path d="M59.4579 54.0437C59.5336 54.0442 59.6081 54.0243 59.6734 53.9862C59.7388 53.948 59.7928 53.893 59.8296 53.8269C59.8296 53.8269 62.2363 49.6191 61.0267 43.2077C60.4214 39.9997 59.3006 38.4213 58.2645 37.6637C57.8582 37.3587 57.3888 37.1486 56.8908 37.0488C56.6799 37.0076 56.4644 36.9958 56.2502 37.0136C56.1953 37.0211 56.1423 37.0394 56.0944 37.0673C56.0465 37.0953 56.0046 37.1324 55.971 37.1766C55.9375 37.2208 55.913 37.2711 55.8989 37.3248C55.8848 37.3784 55.8814 37.4343 55.8889 37.4893C55.8964 37.5442 55.9146 37.5972 55.9426 37.6451C55.9706 37.693 56.0077 37.7349 56.0519 37.7685C56.096 37.802 56.1464 37.8266 56.2 37.8407C56.2537 37.8548 56.3096 37.8582 56.3646 37.8506C56.489 37.8404 56.6142 37.8499 56.7356 37.8788C57.1097 37.9546 57.4618 38.114 57.7655 38.3451C58.5854 38.9448 59.617 40.2928 60.1967 43.3645C61.3567 49.5124 59.0987 53.4057 59.0987 53.4057C59.0607 53.4696 59.0403 53.5424 59.0395 53.6167C59.0387 53.691 59.0575 53.7642 59.094 53.829C59.1305 53.8937 59.1835 53.9476 59.2476 53.9853C59.3116 54.023 59.3845 54.0432 59.4588 54.0437H59.4579Z" fill="#EFA7CC"/>
<path d="M79.8792 20.7401C79.979 20.6327 80.0565 20.5065 80.1071 20.3688C80.1578 20.2311 80.1805 20.0848 80.174 19.9382C80.1675 19.7917 80.1319 19.6479 80.0692 19.5153C80.0066 19.3826 79.9182 19.2638 79.8092 19.1656C79.7002 19.0675 79.5728 18.992 79.4343 18.9436C79.2959 18.8952 79.1492 18.8748 79.0027 18.8836C78.8563 18.8925 78.7131 18.9304 78.5815 18.9951C78.4499 19.0598 78.3325 19.1501 78.2361 19.2607C77.9627 19.5508 77.7631 19.9024 77.654 20.2858C77.5722 20.6451 77.6988 20.7591 77.7597 20.8139C78.0775 21.0342 78.4629 21.1353 78.848 21.0994C79.2239 21.109 79.5906 20.9813 79.8792 20.7401ZM80.5069 21.3053C79.7862 22.1056 77.9958 22.1632 77.1953 21.4424C76.3948 20.7216 76.8876 19.496 77.6084 18.6955C77.7787 18.5016 77.9859 18.3435 78.2178 18.2303C78.4498 18.1171 78.7019 18.0511 78.9595 18.036C79.2172 18.0209 79.4752 18.0572 79.7188 18.1426C79.9623 18.228 80.1865 18.3609 80.3783 18.5336C80.5701 18.7063 80.7257 18.9154 80.8361 19.1486C80.9465 19.3819 81.0095 19.6348 81.0215 19.8926C81.0334 20.1504 80.9941 20.408 80.9058 20.6505C80.8174 20.893 80.6818 21.1156 80.5069 21.3053Z" fill="#EFA7CC"/>
<path d="M33.3801 19.5516C32.5222 19.7183 31.3338 18.8815 31.1671 18.0237C31.0004 17.1658 31.9183 16.612 32.7762 16.445C33.1881 16.3649 33.615 16.4518 33.963 16.6864C34.3109 16.9211 34.5514 17.2844 34.6314 17.6964C34.7115 18.1083 34.6247 18.5352 34.39 18.8832C34.1553 19.2311 33.7921 19.4715 33.3801 19.5516Z" fill="#EFA7CC"/>
</svg>
