<svg width="17" height="18" viewBox="0 0 17 18" fill="none" xmlns="http://www.w3.org/2000/svg">
<path d="M10.1211 15.293H6.34766V18H3.39453V15.293H0.992188V12.9141H3.39453V11.6602H0.992188V9.28125H3.39453V0.9375H9.92188C11.8047 0.9375 13.3086 1.42969 14.4336 2.41406C15.5586 3.39062 16.1211 4.69141 16.1211 6.31641C16.1211 7.97266 15.5859 9.27344 14.5156 10.2188C13.4453 11.1562 11.957 11.6367 10.0508 11.6602H6.34766V12.9141H10.1211V15.293ZM6.34766 9.28125H9.875C10.9375 9.28125 11.75 9.03516 12.3125 8.54297C12.875 8.05078 13.1562 7.31641 13.1562 6.33984C13.1562 5.46484 12.8789 4.75 12.3242 4.19531C11.7773 3.64063 11.0195 3.35156 10.0508 3.32812H6.34766V9.28125Z" fill="black"/>
</svg>
